<mxfile host="app.diagrams.net" modified="2021-09-14T17:05:17.615Z" agent="5.0 (Macintosh; Intel Mac OS X 10_15_7) AppleWebKit/537.36 (KHTML, like Gecko) Chrome/93.0.4577.63 Safari/537.36" etag="qNygp-Xb6AzM3Ml4ieJl" version="15.2.4" type="github">
  <diagram id="2f404044-711c-603c-8f00-f6bb4c023d3c" name="Page-1">
    <mxGraphModel dx="1746" dy="1087" grid="1" gridSize="10" guides="1" tooltips="1" connect="1" arrows="1" fold="1" page="1" pageScale="1" pageWidth="583" pageHeight="827" background="none" math="0" shadow="0">
      <root>
        <mxCell id="0" />
        <mxCell id="1" parent="0" />
        <mxCell id="5RFt17Metff87pNS6tps-10" value="IBM" style="shape=umlFrame;whiteSpace=wrap;html=1;fillColor=#FFF2CC;strokeColor=#d6b656;" vertex="1" parent="1">
          <mxGeometry width="520" height="420" as="geometry" />
        </mxCell>
        <mxCell id="5RFt17Metff87pNS6tps-11" value="Customer" style="shape=umlFrame;whiteSpace=wrap;html=1;fillColor=#FFF2CC;strokeColor=#d6b656;" vertex="1" parent="1">
          <mxGeometry x="583" width="520" height="420" as="geometry" />
        </mxCell>
        <mxCell id="1cblipu1BqGZto9yZwqj-235" value="" style="rounded=0;whiteSpace=wrap;html=1;fillColor=none;" parent="1" vertex="1">
          <mxGeometry x="90" y="160" width="310" height="240" as="geometry" />
        </mxCell>
        <mxCell id="1cblipu1BqGZto9yZwqj-238" value="" style="aspect=fixed;perimeter=ellipsePerimeter;html=1;align=center;shadow=0;dashed=0;fontColor=#4277BB;labelBackgroundColor=#ffffff;fontSize=12;spacingTop=3;image;image=img/lib/ibm/devops/artifact_management.svg;" parent="1" vertex="1">
          <mxGeometry x="145" y="240" width="60" height="60" as="geometry" />
        </mxCell>
        <mxCell id="1cblipu1BqGZto9yZwqj-239" value="Cloud Pak Installation Resources:&lt;br&gt;- URL&lt;br&gt;- Path&lt;br&gt;- Branch" style="text;html=1;strokeColor=none;fillColor=none;align=center;verticalAlign=middle;whiteSpace=wrap;rounded=0;" parent="1" vertex="1">
          <mxGeometry x="120" y="333" width="120" height="20" as="geometry" />
        </mxCell>
        <mxCell id="1cblipu1BqGZto9yZwqj-240" value="" style="aspect=fixed;perimeter=ellipsePerimeter;html=1;align=center;shadow=0;dashed=0;fontColor=#4277BB;labelBackgroundColor=#ffffff;fontSize=12;spacingTop=3;image;image=img/lib/ibm/devops/artifact_management.svg;" parent="1" vertex="1">
          <mxGeometry x="265" y="240" width="60" height="60" as="geometry" />
        </mxCell>
        <mxCell id="1cblipu1BqGZto9yZwqj-241" value="Cloud Pak Custom Resources&lt;br&gt;- URL&lt;br&gt;- Path&lt;br&gt;- Branch" style="text;html=1;strokeColor=none;fillColor=none;align=center;verticalAlign=middle;whiteSpace=wrap;rounded=0;" parent="1" vertex="1">
          <mxGeometry x="240" y="333" width="110" height="20" as="geometry" />
        </mxCell>
        <mxCell id="1cblipu1BqGZto9yZwqj-243" value="IBM GitOps repos" style="text;html=1;strokeColor=none;fillColor=none;align=center;verticalAlign=middle;whiteSpace=wrap;rounded=0;" parent="1" vertex="1">
          <mxGeometry x="120" y="180" width="110" height="20" as="geometry" />
        </mxCell>
        <mxCell id="5odb5PgnUhvFMIPUA1WJ-1" value="Modify Demo Installation of Cloud Pak" style="ellipse;whiteSpace=wrap;html=1;" parent="1" vertex="1">
          <mxGeometry x="320" y="40" width="180" height="90" as="geometry" />
        </mxCell>
        <mxCell id="5odb5PgnUhvFMIPUA1WJ-2" value="" style="endArrow=open;endFill=1;endSize=12;html=1;entryX=0;entryY=0.5;entryDx=0;entryDy=0;exitX=1;exitY=0.5;exitDx=0;exitDy=0;" parent="1" source="5odb5PgnUhvFMIPUA1WJ-1" target="5odb5PgnUhvFMIPUA1WJ-3" edge="1">
          <mxGeometry width="160" relative="1" as="geometry">
            <mxPoint x="168.6" y="94.5" as="sourcePoint" />
            <mxPoint x="328.6" y="94.5" as="targetPoint" />
          </mxGeometry>
        </mxCell>
        <mxCell id="5odb5PgnUhvFMIPUA1WJ-3" value="Clone Demo GitOps Repo for production use" style="ellipse;whiteSpace=wrap;html=1;" parent="1" vertex="1">
          <mxGeometry x="627.6" y="42.5" width="181" height="85" as="geometry" />
        </mxCell>
        <mxCell id="5RFt17Metff87pNS6tps-1" value="Create Demo Installation of Cloud Pak" style="ellipse;whiteSpace=wrap;html=1;" vertex="1" parent="1">
          <mxGeometry x="20" y="40" width="180" height="90" as="geometry" />
        </mxCell>
        <mxCell id="5RFt17Metff87pNS6tps-2" value="" style="endArrow=open;endFill=1;endSize=12;html=1;" edge="1" parent="1" source="5RFt17Metff87pNS6tps-1">
          <mxGeometry width="160" relative="1" as="geometry">
            <mxPoint x="199.9999999999999" y="84.5" as="sourcePoint" />
            <mxPoint x="319" y="85" as="targetPoint" />
          </mxGeometry>
        </mxCell>
        <mxCell id="5RFt17Metff87pNS6tps-4" value="" style="endArrow=open;endFill=1;endSize=12;html=1;entryX=0;entryY=0.5;entryDx=0;entryDy=0;" edge="1" parent="1" target="5RFt17Metff87pNS6tps-5" source="5odb5PgnUhvFMIPUA1WJ-3">
          <mxGeometry width="160" relative="1" as="geometry">
            <mxPoint x="810" y="85" as="sourcePoint" />
            <mxPoint x="608.6" y="94.5" as="targetPoint" />
          </mxGeometry>
        </mxCell>
        <mxCell id="5RFt17Metff87pNS6tps-5" value="Assign membership and roles in production GitOps repo" style="ellipse;whiteSpace=wrap;html=1;" vertex="1" parent="1">
          <mxGeometry x="907.6" y="42.5" width="181" height="85" as="geometry" />
        </mxCell>
        <mxCell id="5RFt17Metff87pNS6tps-13" value="" style="rounded=0;whiteSpace=wrap;html=1;fillColor=none;" vertex="1" parent="1">
          <mxGeometry x="640" y="160" width="420" height="240" as="geometry" />
        </mxCell>
        <mxCell id="5RFt17Metff87pNS6tps-14" value="" style="aspect=fixed;perimeter=ellipsePerimeter;html=1;align=center;shadow=0;dashed=0;fontColor=#4277BB;labelBackgroundColor=#ffffff;fontSize=12;spacingTop=3;image;image=img/lib/ibm/devops/artifact_management.svg;imageBackground=default;" vertex="1" parent="1">
          <mxGeometry x="695" y="240" width="60" height="60" as="geometry" />
        </mxCell>
        <mxCell id="5RFt17Metff87pNS6tps-15" value="Cloud Pak Installation Resources:&lt;br&gt;- URL&lt;br&gt;- Path&lt;br&gt;- Branch" style="text;html=1;strokeColor=none;fillColor=none;align=center;verticalAlign=middle;whiteSpace=wrap;rounded=0;" vertex="1" parent="1">
          <mxGeometry x="670" y="333" width="120" height="20" as="geometry" />
        </mxCell>
        <mxCell id="5RFt17Metff87pNS6tps-16" value="" style="aspect=fixed;perimeter=ellipsePerimeter;html=1;align=center;shadow=0;dashed=0;fontColor=#4277BB;labelBackgroundColor=#ffffff;fontSize=12;spacingTop=3;image;image=img/lib/ibm/devops/artifact_management.svg;imageBackground=default;" vertex="1" parent="1">
          <mxGeometry x="837.4" y="240" width="60" height="60" as="geometry" />
        </mxCell>
        <mxCell id="5RFt17Metff87pNS6tps-17" value="Cloud Pak Custom Resources&lt;br&gt;- URL&lt;br&gt;- Path&lt;br&gt;- Branch" style="text;html=1;strokeColor=none;fillColor=none;align=center;verticalAlign=middle;whiteSpace=wrap;rounded=0;" vertex="1" parent="1">
          <mxGeometry x="812.4" y="333" width="110" height="20" as="geometry" />
        </mxCell>
        <mxCell id="5RFt17Metff87pNS6tps-18" value="Customer GitOps repos" style="text;html=1;strokeColor=none;fillColor=none;align=center;verticalAlign=middle;whiteSpace=wrap;rounded=0;" vertex="1" parent="1">
          <mxGeometry x="662.4" y="180" width="150" height="20" as="geometry" />
        </mxCell>
        <mxCell id="5RFt17Metff87pNS6tps-19" value="" style="aspect=fixed;perimeter=ellipsePerimeter;html=1;align=center;shadow=0;dashed=0;fontColor=#4277BB;labelBackgroundColor=#ffffff;fontSize=12;spacingTop=3;image;image=img/lib/ibm/devops/artifact_management.svg;imageBackground=default;" vertex="1" parent="1">
          <mxGeometry x="967.4" y="240" width="60" height="60" as="geometry" />
        </mxCell>
        <mxCell id="5RFt17Metff87pNS6tps-20" value="Customer-specific resources&lt;br&gt;- URL&lt;br&gt;- Path&lt;br&gt;- Branch" style="text;html=1;strokeColor=none;fillColor=none;align=center;verticalAlign=middle;whiteSpace=wrap;rounded=0;" vertex="1" parent="1">
          <mxGeometry x="942.4" y="333" width="110" height="20" as="geometry" />
        </mxCell>
      </root>
    </mxGraphModel>
  </diagram>
</mxfile>
